<?xml version="1.0" encoding="UTF-8"?>
<!DOCTYPE svg PUBLIC "-//W3C//DTD SVG 1.1//EN" "http://www.w3.org/Graphics/SVG/1.1/DTD/svg11.dtd">
<!-- Creator: CorelDRAW X7 -->
<svg xmlns="http://www.w3.org/2000/svg" xml:space="preserve" width="11.6929in" height="8.26772in" version="1.1" style="shape-rendering:geometricPrecision; text-rendering:geometricPrecision; image-rendering:optimizeQuality; fill-rule:evenodd; clip-rule:evenodd"
viewBox="0 0 11693 8268"
 xmlns:xlink="http://www.w3.org/1999/xlink">
 <defs>
  <style type="text/css">
   <![CDATA[
    .fil0 {fill:black}
   ]]>
  </style>
 </defs>
 <g id="Layer_x0020_1">
  <metadata id="CorelCorpID_0Corel-Layer"/>
  <path class="fil0" d="M3623 2059c-2,1516 -77,4878 1346,5653 155,-70 728,-342 1255,-768 -496,-455 -1824,-2283 -1869,-4859l0 1c-249,-41 -497,-56 -732,-27l0 0z"/>
  <path class="fil0" d="M5155 7827c0,0 2377,-1003 2274,-2523 -102,-1519 -1526,-2773 -1526,-2773l228 -2161 2127 689c0,0 1411,4703 -367,5948 -1778,1246 -2736,820 -2736,820z"/>
  <path class="fil0" d="M4353 1949c294,-574 442,-993 444,-1256 -670,-274 -1301,-266 -1893,24 151,393 386,789 717,1205 235,-29 484,-14 732,27z"/>
 </g>
</svg>
